<svg id="visual" viewBox="0 0 960 540" width="960" height="540" xmlns="http://www.w3.org/2000/svg" xmlns:xlink="http://www.w3.org/1999/xlink" version="1.1">
    <path d="M0 44L17.8 45C35.7 46 71.3 48 106.8 45.3C142.3 42.7 177.7 35.3 213.2 43.3C248.7 51.3 284.3 74.7 320 99C355.7 123.3 391.3 148.7 426.8 153.2C462.3 157.7 497.7 141.3 533.2 128.7C568.7 116 604.3 107 640 116C675.7 125 711.3 152 746.8 160.2C782.3 168.3 817.7 157.7 853.2 137C888.7 116.3 924.3 85.7 942.2 70.3L960 55L960 0L942.2 0C924.3 0 888.7 0 853.2 0C817.7 0 782.3 0 746.8 0C711.3 0 675.7 0 640 0C604.3 0 568.7 0 533.2 0C497.7 0 462.3 0 426.8 0C391.3 0 355.7 0 320 0C284.3 0 248.7 0 213.2 0C177.7 0 142.3 0 106.8 0C71.3 0 35.7 0 17.8 0L0 0Z" fill="#acbdb7"></path><path d="M0 239L17.8 225.5C35.7 212 71.3 185 106.8 175C142.3 165 177.7 172 213.2 176.5C248.7 181 284.3 183 320 193.8C355.7 204.7 391.3 224.3 426.8 252.2C462.3 280 497.7 316 533.2 317.8C568.7 319.7 604.3 287.3 640 283.7C675.7 280 711.3 305 746.8 295C782.3 285 817.7 240 853.2 223C888.7 206 924.3 217 942.2 222.5L960 228L960 53L942.2 68.3C924.3 83.7 888.7 114.3 853.2 135C817.7 155.7 782.3 166.3 746.8 158.2C711.3 150 675.7 123 640 114C604.3 105 568.7 114 533.2 126.7C497.7 139.3 462.3 155.7 426.8 151.2C391.3 146.7 355.7 121.3 320 97C284.3 72.7 248.7 49.3 213.2 41.3C177.7 33.3 142.3 40.7 106.8 43.3C71.3 46 35.7 44 17.8 43L0 42Z" fill="#93aaa3"></path><path d="M0 298L17.8 294.3C35.7 290.7 71.3 283.3 106.8 287.8C142.3 292.3 177.7 308.7 213.2 306C248.7 303.3 284.3 281.7 320 285.3C355.7 289 391.3 318 426.8 350.5C462.3 383 497.7 419 533.2 428C568.7 437 604.3 419 640 416.2C675.7 413.3 711.3 425.7 746.8 411.2C782.3 396.7 817.7 355.3 853.2 330.2C888.7 305 924.3 296 942.2 291.5L960 287L960 226L942.2 220.5C924.3 215 888.7 204 853.2 221C817.7 238 782.3 283 746.8 293C711.3 303 675.7 278 640 281.7C604.3 285.3 568.7 317.7 533.2 315.8C497.7 314 462.3 278 426.8 250.2C391.3 222.3 355.7 202.7 320 191.8C284.3 181 248.7 179 213.2 174.5C177.7 170 142.3 163 106.8 173C71.3 183 35.7 210 17.8 223.5L0 237Z" fill="#7b928c"></path><path d="M0 541L17.8 541C35.7 541 71.3 541 106.8 541C142.3 541 177.7 541 213.2 541C248.7 541 284.3 541 320 541C355.7 541 391.3 541 426.8 541C462.3 541 497.7 541 533.2 541C568.7 541 604.3 541 640 541C675.7 541 711.3 541 746.8 541C782.3 541 817.7 541 853.2 541C888.7 541 924.3 541 942.2 541L960 541L960 285L942.2 289.5C924.3 294 888.7 303 853.2 328.2C817.7 353.3 782.3 394.7 746.8 409.2C711.3 423.7 675.7 411.3 640 414.2C604.3 417 568.7 435 533.2 426C497.7 417 462.3 381 426.8 348.5C391.3 316 355.7 287 320 283.3C284.3 279.7 248.7 301.3 213.2 304C177.7 306.7 142.3 290.3 106.8 285.8C71.3 281.3 35.7 288.7 17.8 292.3L0 296Z" fill="#637671"></path></svg>